<?xml version="1.0" standalone="no"?>
<!DOCTYPE svg PUBLIC "-//W3C//DTD SVG 20010904//EN"
 "http://www.w3.org/TR/2001/REC-SVG-20010904/DTD/svg10.dtd">
<svg version="1.0" xmlns="http://www.w3.org/2000/svg"
 width="16.000000pt" height="16.000000pt" viewBox="0 0 16.000000 16.000000"
 preserveAspectRatio="xMidYMid meet">

<g transform="translate(0.000000,16.000000) scale(0.100000,-0.100000)"
fill="#000000" stroke="none">
<path d="M108 134 c25 -17 30 -36 7 -28 -8 4 -26 -1 -38 -9 -21 -14 -24 -13
-35 4 -11 17 -9 21 10 29 20 7 20 9 4 9 -41 2 -63 -81 -30 -113 20 -21 88 -21
108 0 34 33 7 124 -36 124 -7 0 -2 -7 10 -16z"/>
</g>
</svg>
